<svg width="32" height="21" viewBox="0 0 32 21" fill="none" xmlns="http://www.w3.org/2000/svg">
<path d="M31.6133 0.962788C31.377 0.852788 31.099 0.891163 30.9024 1.05916C26.0319 5.18804 19.8158 10.4804 17.86 12.2427C16.7623 13.2336 15.2389 13.2336 14.1386 12.2414C12.054 10.3632 5.0735 4.42891 1.09763 1.0591C0.899688 0.891101 0.621063 0.854038 0.386687 0.962725C0.151062 1.07216 0 1.30785 0 1.5676V18.3332C0 19.804 1.19594 20.9999 2.66669 20.9999H29.3334C30.8041 20.9999 32 19.804 32 18.3332V1.5676C32 1.30785 31.8489 1.07154 31.6133 0.962788Z" fill="#CD06FF"/>
</svg>
